<?xml version="1.0" encoding="utf-8"?>
<!-- Generator: Adobe Illustrator 24.3.0, SVG Export Plug-In . SVG Version: 6.00 Build 0)  -->
<svg version="1.1" id="Ebene_1" xmlns="http://www.w3.org/2000/svg" xmlns:xlink="http://www.w3.org/1999/xlink" x="0px" y="0px"
	 viewBox="0 0 283.5 283.5" style="enable-background:new 0 0 283.5 283.5;" xml:space="preserve">
<style type="text/css">
	.st0{fill:#0070BB;}
	.st1{fill-rule:evenodd;clip-rule:evenodd;fill:#0070BB;}
</style>
<path class="st0" d="M141.7,19c67.8,0,122.7,54.9,122.7,122.7s-54.9,122.7-122.7,122.7C74,264.5,19,209.5,19,141.7S74,19,141.7,19
	 M141.7,0C63.6,0,0,63.6,0,141.7s63.6,141.7,141.7,141.7c78.2,0,141.7-63.6,141.7-141.7S219.9,0,141.7,0L141.7,0z"/>
<path class="st1" d="M120.4,60.9c5.1,19.8,23.1,80.6,23.1,80.6L165,60.9h68.3l0.3,161.6h-52.1l0.3-91.8l-23.4,91.8h-34.1L101.5,135
	l1.1,87.6H50l0-161.6C49.9,60.9,94.7,60.9,120.4,60.9L120.4,60.9z"/>
</svg>
